<svg width="19" height="17" viewBox="0 0 19 17" fill="none" xmlns="http://www.w3.org/2000/svg">
<path d="M0.55581 13.36H15.1032C15.2337 13.36 15.3598 13.3143 15.4598 13.2311C15.5996 13.1141 18.7869 10.3722 18.9812 4.45337H3.3576C3.16399 9.82604 0.228604 12.3514 0.198099 12.3766C0.019262 12.5277 -0.0465354 12.7745 0.0339208 12.9941C0.11382 13.2132 0.322049 13.36 0.55581 13.36Z" fill="#2E9FFD"/>
<path d="M18.4434 1.11332H15.6601V0.556661C15.6601 0.244931 15.4152 0 15.1035 0C14.7917 0 14.5468 0.244931 14.5468 0.556661V1.11332H11.7264V0.556661C11.7264 0.244931 11.4815 0 11.1697 0C10.858 0 10.6131 0.244931 10.6131 0.556661V1.11332H7.82976V0.556661C7.82976 0.244931 7.58483 0 7.2731 0C6.96137 0 6.71643 0.244931 6.71643 0.556661V1.11332H3.93313C3.6214 1.11332 3.37646 1.35825 3.37646 1.66998V3.33997H19.0001V1.66998C19.0001 1.35825 18.7552 1.11332 18.4434 1.11332Z" fill="#2E9FFD"/>
<path d="M16.1749 14.0845C15.8727 14.3362 15.4932 14.4732 15.1035 14.4732H3.37646V16.1432C3.37646 16.4509 3.62544 16.6999 3.93313 16.6999H18.4434C18.7511 16.6999 19.0001 16.4509 19.0001 16.1432V9.9032C17.9269 12.5362 16.4292 13.8717 16.1749 14.0845Z" fill="#2E9FFD"/>
</svg>
