<svg width="11" height="20" viewBox="0 0 11 20" fill="none" xmlns="http://www.w3.org/2000/svg">
<path d="M0 12.3438V13.5156C0 15.4543 1.48027 17.0312 3.3 17.0312H4.4V20H6.6V17.0312H7.42929C9.39833 17.0312 11 15.3249 11 13.2272C11 11.478 9.88764 9.96051 8.2951 9.53652L6.6 9.08496V5.3125H7.7C8.30639 5.3125 8.8 5.83836 8.8 6.48438V7.65625H11V6.48438C11 4.54574 9.51973 2.96875 7.7 2.96875H6.6V0H4.4V2.96875H3.57071C1.60167 2.96875 0 4.67508 0 6.77277C0 8.52199 1.11236 10.0395 2.7049 10.4635L4.4 10.915V14.6875H3.3C2.69361 14.6875 2.2 14.1616 2.2 13.5156V12.3438H0ZM6.6 11.5011L7.76123 11.8104C8.37302 11.9729 8.8 12.5554 8.8 13.2272C8.8 14.0323 8.18503 14.6875 7.42929 14.6875H6.6V11.5011ZM3.23877 8.18953C2.62698 8.02703 2.2 7.44453 2.2 6.77273C2.2 5.96766 2.81497 5.31246 3.57071 5.31246H4.4V8.49887L3.23877 8.18953Z" fill="#0AB062"/>
</svg>
