<svg width="18" height="19" viewBox="0 0 18 19" fill="none" xmlns="http://www.w3.org/2000/svg">
<path d="M1.81542 7.03957C2.3335 5.05291 3.9164 3.53301 5.90411 3.11362L6.28393 3.03348C8.07538 2.65551 9.92462 2.65551 11.7161 3.03348L12.0959 3.11362C14.0836 3.53301 15.6665 5.05291 16.1846 7.03957C16.6051 8.65226 16.6051 10.3477 16.1846 11.9604C15.6665 13.9471 14.0836 15.467 12.0959 15.8864L11.7161 15.9665C9.92462 16.3445 8.07538 16.3445 6.28394 15.9665L5.90411 15.8864C3.9164 15.467 2.3335 13.9471 1.81542 11.9604C1.39486 10.3477 1.39486 8.65225 1.81542 7.03957Z" stroke="white" stroke-width="1.5"/>
<path d="M4.5 9.5H6L7.5 11.75L10.5 7.25L12 9.5H13.5" stroke="white" stroke-width="1.5" stroke-linecap="round" stroke-linejoin="round"/>
</svg>
