<svg width="17" height="18" viewBox="0 0 17 18" fill="none" xmlns="http://www.w3.org/2000/svg">
<path d="M4.25219 9.86975H0.607456C0.271967 9.86975 0 10.1417 0 10.4772V16.5518C0 16.8873 0.271967 17.1592 0.607456 17.1592H4.25219C4.58768 17.1592 4.85965 16.8873 4.85965 16.5518V10.4772C4.85965 10.1417 4.58768 9.86975 4.25219 9.86975Z" fill="#4172FC"/>
<path d="M15.8616 5.01001H12.2168C11.8813 5.01001 11.6094 5.28198 11.6094 5.61747V16.5517C11.6094 16.8872 11.8813 17.1591 12.2168 17.1591H15.8616C16.1971 17.1591 16.469 16.8872 16.469 16.5517V5.61747C16.469 5.28198 16.1971 5.01001 15.8616 5.01001Z" fill="#4172FC"/>
<path d="M10.0569 0H6.41214C6.07665 0 5.80469 0.271967 5.80469 0.607456V16.4013C5.80469 16.7368 6.07665 17.0088 6.41214 17.0088H10.0569C10.3924 17.0088 10.6643 16.7368 10.6643 16.4013V0.607456C10.6643 0.271967 10.3924 0 10.0569 0Z" fill="#4172FC"/>
</svg>
