<svg width="19" height="19" viewBox="0 0 19 19" fill="none" xmlns="http://www.w3.org/2000/svg">
<path d="M12.0957 13.5072C12.0957 12.979 12.0957 11.3712 13.6214 11.3712H16.6729V9.54027C16.6729 8.69898 15.9885 8.01453 15.1472 8.01453H2.02575C1.18445 8.01453 0.5 8.69898 0.5 9.54027V17.4742C0.5 18.3155 1.18445 18.9999 2.02575 18.9999H15.1472C15.9885 18.9999 16.6729 18.3155 16.6729 17.4742V15.6433H13.6214C12.0957 15.6433 12.0957 14.0354 12.0957 13.5072Z" fill="#FDAC00"/>
<path d="M12.7056 7.40435V5.55453C12.7056 5.23931 12.5411 4.95339 12.2656 4.78983C11.98 4.62016 11.6351 4.61437 11.3437 4.77335L6.06738 7.40435H12.7056Z" fill="#FDAC00"/>
<path d="M14.5366 14.1176C14.8736 14.1176 15.1469 13.8443 15.1469 13.5073C15.1469 13.1702 14.8736 12.897 14.5366 12.897C14.1995 12.897 13.9263 13.1702 13.9263 13.5073C13.9263 13.8443 14.1995 14.1176 14.5366 14.1176Z" fill="#FDAC00"/>
<path d="M9.95992 4.78177V3.48275C9.95992 3.01862 9.6743 2.72384 9.4073 2.6027C9.08323 2.45562 8.72803 2.50993 8.45706 2.74765L3.14258 7.40423H4.70067L9.95992 4.78177Z" fill="#FDAC00"/>
<path d="M17.2828 11.9816H13.621C13.0714 11.9816 12.7056 12.2412 12.7056 13.5073C12.7056 14.7734 13.0714 15.0331 13.621 15.0331H17.2828C17.7875 15.0331 18.1983 14.6223 18.1983 14.1176V12.897C18.1983 12.3923 17.7875 11.9816 17.2828 11.9816ZM14.5365 14.7279C13.8633 14.7279 13.3159 14.1805 13.3159 13.5073C13.3159 12.8342 13.8633 12.2867 14.5365 12.2867C15.2096 12.2867 15.7571 12.8342 15.7571 13.5073C15.7571 14.1805 15.2096 14.7279 14.5365 14.7279Z" fill="#FDAC00"/>
<path d="M18.4366 3.07055L17.0329 1.18229C16.8511 0.937559 16.4843 0.937559 16.3024 1.18259L14.9073 3.0614C14.7684 3.20024 14.8667 3.43734 15.0629 3.43734H15.7519C15.9384 4.35157 15.5276 5.28411 14.7275 5.76411L14.5371 5.87854L15.7577 6.79399L15.8114 6.75828C16.9215 6.01799 17.5886 4.77176 17.5886 3.43734H18.2846C18.4763 3.43734 18.5721 3.20604 18.4366 3.07055Z" fill="#FDAC00"/>
</svg>
